<svg width="30" height="30" viewBox="0 0 30 30" fill="none" xmlns="http://www.w3.org/2000/svg">
<g clip-path="url(#clip0_18_126)">
<path d="M25.0482 21.0712C28.2376 18.225 30 15 30 15C30 15 24.375 4.6875 15 4.6875C13.1991 4.69221 11.4184 5.06749 9.7688 5.79L11.2125 7.23562C12.427 6.79546 13.7083 6.56776 15 6.5625C18.975 6.5625 22.2732 8.7525 24.6901 11.1694C25.8545 12.3376 26.8973 13.6211 27.8025 15C27.695 15.1625 27.5732 15.3425 27.4369 15.54C26.8088 16.44 25.8807 17.64 24.6901 18.8306C24.3813 19.1406 24.0582 19.4444 23.7207 19.7419L25.0482 21.0712Z" fill="black"/>
<path d="M21.1818 17.205C21.6002 16.0347 21.6777 14.7696 21.4053 13.557C21.1328 12.3444 20.5216 11.2341 19.6428 10.3553C18.7639 9.47646 17.6536 8.86526 16.441 8.5928C15.2284 8.32034 13.9634 8.39783 12.7931 8.81624L14.3362 10.3594C15.0568 10.2562 15.7915 10.3223 16.4821 10.5524C17.1727 10.7825 17.8002 11.1703 18.3149 11.685C18.8296 12.1997 19.2174 12.8273 19.4475 13.5179C19.6776 14.2085 19.7437 14.9432 19.6406 15.6637L21.1818 17.205ZM15.6637 19.6406L17.2049 21.1819C16.0346 21.6003 14.7696 21.6778 13.557 21.4053C12.3444 21.1329 11.234 20.5217 10.3552 19.6428C9.47639 18.764 8.86519 17.6537 8.59274 16.4411C8.32028 15.2285 8.39777 13.9634 8.81618 12.7931L10.3593 14.3362C10.2562 15.0568 10.3223 15.7915 10.5524 16.4821C10.7825 17.1727 11.1702 17.8003 11.685 18.315C12.1997 18.8297 12.8272 19.2175 13.5178 19.4476C14.2084 19.6777 14.9431 19.7438 15.6637 19.6406Z" fill="black"/>
<path d="M6.28125 10.2562C5.94375 10.5562 5.62 10.8606 5.31 11.1694C4.14556 12.3376 3.10272 13.6211 2.1975 15L2.56312 15.54C3.19125 16.44 4.11938 17.64 5.31 18.8306C7.72688 21.2475 11.0269 23.4375 15 23.4375C16.3425 23.4375 17.6063 23.1881 18.7875 22.7625L20.2313 24.21C18.5816 24.9325 16.8009 25.3078 15 25.3125C5.625 25.3125 0 15 0 15C0 15 1.76063 11.7731 4.95188 8.92874L6.27938 10.2581L6.28125 10.2562ZM25.5863 26.9137L3.08625 4.41374L4.41375 3.08624L26.9137 25.5862L25.5863 26.9137Z" fill="black"/>
</g>
<defs>
<clipPath id="clip0_18_126">
<rect width="30" height="30" fill="white"/>
</clipPath>
</defs>
</svg>
