<svg width="80" height="80" viewBox="0 0 80 80" fill="none" xmlns="http://www.w3.org/2000/svg">
<path d="M79.8859 51.8071C79.8859 51.8057 79.8859 51.8043 79.8859 51.8031C79.8847 51.795 79.8859 51.7895 79.8847 51.7812H79.8833C78.8392 37.9296 75.6397 27.6557 71.1414 20.7115C68.8895 17.2395 66.3027 14.5998 63.4788 12.8198C60.6588 11.0384 57.5961 10.1326 54.5119 10.1354C52.2383 10.134 50.2955 10.5462 48.6483 11.1684C46.1739 12.1012 44.3736 13.4801 42.9664 14.4995C42.2641 15.012 41.6581 15.4309 41.1619 15.6857C40.6602 15.9448 40.3064 16.0356 40 16.0356C39.7925 16.0342 39.5742 15.9964 39.2936 15.8918C38.8069 15.7142 38.1548 15.3087 37.3752 14.7462C36.1984 13.9096 34.7369 12.7518 32.8091 11.8015C30.8811 10.8496 28.4706 10.1312 25.488 10.1353C22.4038 10.1325 19.3411 11.0395 16.5211 12.8196C12.2844 15.4945 8.58453 20.0823 5.7386 26.552C2.89719 33.0206 0.897345 41.3937 0.116564 51.7814H0.115314C0.113908 51.7895 0.115314 51.7964 0.113908 51.8032C0.113908 51.8045 0.113908 51.8059 0.113908 51.8073C0.0379704 52.6532 1.64003e-06 53.4761 1.64003e-06 54.2746C-0.00140461 58.19 0.901564 61.5332 2.60172 64.1404C4.29641 66.7489 6.79906 68.5696 9.72891 69.4251C10.7336 69.7207 11.7708 69.8643 12.8159 69.8643C15.8542 69.8603 18.9169 68.674 21.8303 66.62C24.7492 64.5592 27.5488 61.6118 30.0975 57.912C31.3233 56.1265 32.9881 54.0373 34.783 52.466C35.6792 51.6798 36.6052 51.0264 37.4958 50.587C38.388 50.1464 39.2286 49.9239 40 49.9253C40.7713 49.9239 41.612 50.1462 42.5041 50.587C43.8408 51.2431 45.2522 52.3929 46.5333 53.7295C47.8186 55.0635 48.9817 56.5726 49.9023 57.9107C52.4511 61.612 55.2508 64.5592 58.1683 66.62C61.0831 68.674 64.1456 69.8603 67.1839 69.8643C68.2292 69.8643 69.2664 69.7206 70.2697 69.4251C73.2008 68.5696 75.7034 66.7489 77.3969 64.1404C79.097 61.5332 80 58.19 80 54.2746C80 53.4775 79.962 52.6532 79.8859 51.8071ZM74.4902 62.2437C73.2239 64.1743 71.4845 65.442 69.2895 66.0954C68.613 66.2946 67.9134 66.3923 67.1841 66.3936C65.0772 66.3976 62.6681 65.5476 60.1694 63.7837C57.6734 62.0253 55.1206 59.3736 52.7603 55.9436C51.4222 54.0034 49.6284 51.7229 47.5041 49.8576C46.4397 48.9248 45.2902 48.0925 44.0416 47.4756C42.7955 46.86 41.4358 46.4546 40 46.4546C38.5642 46.4546 37.2044 46.86 35.9584 47.4756C34.0875 48.4042 32.4308 49.8046 30.9652 51.3218C29.5038 52.8415 28.2414 54.4887 27.2397 55.9436C24.8794 59.3736 22.325 62.0253 19.8305 63.7837C17.3319 65.5475 14.9214 66.3976 12.8158 66.3936C12.085 66.3921 11.3869 66.2946 10.7089 66.0954C8.51516 65.442 6.77578 64.1743 5.50828 62.2437C4.24891 60.3118 3.47078 57.6667 3.47078 54.2746C3.47078 53.5792 3.50328 52.8511 3.57235 52.0932V52.0851L3.57375 52.0675C4.57828 38.6034 7.70594 28.8515 11.7692 22.6003C13.7988 19.4712 16.052 17.2179 18.3717 15.7564C20.6955 14.295 23.0789 13.6089 25.488 13.6062C27.3467 13.6076 28.8355 13.9329 30.1247 14.417C32.0553 15.1436 33.5439 16.2539 34.9931 17.3087C35.72 17.8348 36.4358 18.3486 37.2397 18.7675C38.0383 19.1823 38.9628 19.5064 40 19.5064C40.6873 19.5064 41.3369 19.3614 41.9197 19.1431C42.9447 18.7553 43.7947 18.1723 44.6419 17.5704C45.9095 16.6593 47.1744 15.6736 48.7186 14.9171C50.2628 14.162 52.07 13.6103 54.5117 13.6062C56.9208 13.6089 59.3042 14.295 61.6281 15.7564C65.1069 17.9446 68.4406 21.9332 71.083 27.9486C73.7267 33.9585 75.6695 41.9696 76.4259 52.0673V52.0754L76.4273 52.0931C76.4952 52.8496 76.5292 53.5778 76.5292 54.2745C76.5278 57.6667 75.7509 60.3131 74.4902 62.2437Z" fill="white"/>
<path d="M25.1924 27.8322H19.1077V33.3798H13.5601V39.4645H19.1077V45.0123H25.1924V39.4645H30.7401V33.3798H25.1924V27.8322Z" fill="white"/>
<path d="M57.603 26.094C55.8325 26.094 54.3967 27.5298 54.3967 29.3031C54.3967 31.0751 55.8325 32.5121 57.603 32.5121C59.3764 32.5121 60.812 31.0751 60.812 29.3031C60.812 27.5298 59.3763 26.094 57.603 26.094Z" fill="white"/>
<path d="M57.603 41.6011C55.8325 41.6011 54.3967 43.0369 54.3967 44.8089C54.3967 46.5822 55.8325 48.0179 57.603 48.0179C59.3764 48.0179 60.812 46.5822 60.812 44.8089C60.812 43.0369 59.3763 41.6011 57.603 41.6011Z" fill="white"/>
<path d="M65.3565 33.8489C63.5845 33.8489 62.1475 35.2847 62.1475 37.0567C62.1475 38.83 63.5845 40.2643 65.3565 40.2643C67.13 40.2643 68.5656 38.83 68.5656 37.0567C68.5656 35.2847 67.1298 33.8489 65.3565 33.8489Z" fill="white"/>
<path d="M49.8521 33.8489C48.0788 33.8489 46.6431 35.2847 46.6431 37.0567C46.6431 38.83 48.0788 40.2643 49.8521 40.2643C51.6242 40.2643 53.0613 38.83 53.0613 37.0567C53.0612 35.2847 51.624 33.8489 49.8521 33.8489Z" fill="white"/>
</svg>
